<?xml version="1.0" standalone="no"?>
<!DOCTYPE svg PUBLIC "-//W3C//DTD SVG 20010904//EN"
 "http://www.w3.org/TR/2001/REC-SVG-20010904/DTD/svg10.dtd">
<svg version="1.0" xmlns="http://www.w3.org/2000/svg"
 width="379.000000pt" height="118.000000pt" viewBox="0 0 379.000000 118.000000"
 preserveAspectRatio="xMidYMid meet">
<metadata>
Created by potrace 1.16, written by Peter Selinger 2001-2019
</metadata>
<g transform="translate(0.000000,118.000000) scale(0.100000,-0.100000)"
fill="#000000" stroke="none">
<path d="M389 713 c-51 -119 -95 -220 -97 -225 -2 -4 65 -8 150 -8 l154 0 11
29 10 29 159 3 c217 5 208 0 297 199 50 113 66 159 59 170 -8 13 -55 15 -329
18 l-319 2 -95 -217z m457 159 c-3 -10 -32 -76 -65 -147 l-58 -130 -42 -3 -41
-3 25 58 c15 32 45 100 67 151 l41 92 39 0 c33 0 38 -3 34 -18z"/>
<path d="M1245 916 c-16 -7 -37 -22 -46 -32 -9 -11 -54 -102 -99 -204 -45
-102 -84 -188 -87 -192 -2 -5 59 -8 137 -8 l140 0 17 35 c14 30 22 35 51 35
36 0 37 -4 17 -52 -7 -17 4 -18 141 -18 l149 0 88 199 c48 109 87 205 87 213
0 36 -19 38 -294 38 -203 -1 -279 -4 -301 -14z m295 -38 c0 -7 -28 -77 -62
-155 l-63 -143 -37 0 c-38 0 -49 14 -29 35 5 6 25 48 44 95 76 183 74 180 112
180 21 0 35 -5 35 -12z"/>
<path d="M1916 921 c-11 -17 -196 -435 -196 -442 0 -4 66 -6 146 -5 119 1 148
4 155 16 8 13 76 173 160 373 l28 67 -144 0 c-79 0 -146 -4 -149 -9z"/>
<path d="M260 421 c-22 -43 -18 -44 141 -39 114 4 153 8 160 19 23 36 13 39
-141 39 -137 0 -150 -2 -160 -19z"/>
<path d="M986 418 c-8 -12 -13 -25 -10 -30 3 -4 63 -8 134 -8 122 0 130 1 144
22 9 12 16 26 16 30 0 5 -60 8 -134 8 -127 0 -136 -1 -150 -22z"/>
<path d="M1340 421 c-6 -13 -9 -25 -7 -28 3 -3 68 -7 145 -10 137 -6 140 -5
152 16 6 13 10 24 8 26 -2 2 -67 7 -145 11 -139 7 -141 7 -153 -15z"/>
<path d="M1686 414 c-3 -9 -6 -20 -6 -25 0 -5 124 -9 298 -9 253 0 301 2 320
16 12 8 22 19 22 25 0 5 -124 9 -314 9 -277 0 -315 -2 -320 -16z"/>
<path d="M216 324 c-3 -9 -6 -20 -6 -25 0 -5 65 -9 150 -9 137 0 150 2 160 19
5 11 10 22 10 25 0 3 -69 6 -154 6 -131 0 -155 -2 -160 -16z"/>
<path d="M1650 331 c0 -5 -3 -16 -6 -25 -6 -14 25 -16 300 -16 292 0 306 1
316 19 5 11 10 22 10 25 0 3 -139 6 -310 6 -182 0 -310 -4 -310 -9z"/>
</g>
</svg>
